<svg xmlns="http://www.w3.org/2000/svg" width="240" height="340" viewBox="0 0 240 340"><defs><linearGradient id="body" x1="0" y1="0" x2="1" y2="1"><stop stop-color="#d7e0e3"/><stop offset=".45" stop-color="#aeb9bf"/><stop offset="1" stop-color="#d7e0e3"/></linearGradient><linearGradient id="glass" x2="1" y2="1"><stop stop-color="#3a4145"/><stop offset=".5" stop-color="#101619"/><stop offset="1" stop-color="#48515d"/></linearGradient></defs><rect x="37" y="12" width="166" height="316" rx="28" fill="#4b4241"/><rect x="40" y="14" width="160" height="311" rx="26" fill="url(#body)" stroke="#d7e0e3"/><rect x="48" y="24" width="144" height="89" rx="22" fill="#aeb9bf" stroke="#d7e0e3" stroke-opacity=".7"/><circle cx="74" cy="48" r="19" fill="#252a2c" stroke="#8b8588" stroke-width="2"/><circle cx="74" cy="48" r="13" fill="url(#glass)"/><circle cx="70" cy="43" r="5" fill="#7d97b0" opacity=".3"/><circle cx="74" cy="48" r="6" fill="#121823"/><circle cx="120" cy="48" r="19" fill="#252a2c" stroke="#8b8588" stroke-width="2"/><circle cx="120" cy="48" r="13" fill="url(#glass)"/><circle cx="116" cy="43" r="5" fill="#7d97b0" opacity=".3"/><circle cx="120" cy="48" r="6" fill="#121823"/><circle cx="74" cy="88" r="19" fill="#252a2c" stroke="#8b8588" stroke-width="2"/><circle cx="74" cy="88" r="13" fill="url(#glass)"/><circle cx="70" cy="83" r="5" fill="#7d97b0" opacity=".3"/><circle cx="74" cy="88" r="6" fill="#121823"/><circle cx="166" cy="45" r="8" fill="#e7e0cf"/><circle cx="165" cy="79" r="6" fill="#242327"/><rect x="35" y="77" width="3" height="22" rx="1.5" fill="#6c6261"/><rect x="35" y="106" width="3" height="37" rx="1.5" fill="#6c6261"/><rect x="201" y="93" width="3" height="43" rx="1.5" fill="#6c6261"/><path d="M108 203h24m-12-12v24" stroke="#d7e0e3" opacity=".4" stroke-width="2" stroke-linecap="round"/><path d="M61 307h118" stroke="#d7e0e3" opacity=".4"/></svg>